%TF.GenerationSoftware,KiCad,Pcbnew,5.99.0-unknown-c33b2cfa8d~128~ubuntu20.04.1*%
%TF.CreationDate,2021-05-18T07:02:03+07:00*%
%TF.ProjectId,PmodUsbUlpi,506d6f64-5573-4625-956c-70692e6b6963,1*%
%TF.SameCoordinates,Original*%
%TF.FileFunction,Legend,Top*%
%TF.FilePolarity,Positive*%
%FSLAX46Y46*%
G04 Gerber Fmt 4.6, Leading zero omitted, Abs format (unit mm)*
G04 Created by KiCad (PCBNEW 5.99.0-unknown-c33b2cfa8d~128~ubuntu20.04.1) date 2021-05-18 07:02:03*
%MOMM*%
%LPD*%
G01*
G04 APERTURE LIST*
G04 Aperture macros list*
%AMRoundRect*
0 Rectangle with rounded corners*
0 $1 Rounding radius*
0 $2 $3 $4 $5 $6 $7 $8 $9 X,Y pos of 4 corners*
0 Add a 4 corners polygon primitive as box body*
4,1,4,$2,$3,$4,$5,$6,$7,$8,$9,$2,$3,0*
0 Add four circle primitives for the rounded corners*
1,1,$1+$1,$2,$3*
1,1,$1+$1,$4,$5*
1,1,$1+$1,$6,$7*
1,1,$1+$1,$8,$9*
0 Add four rect primitives between the rounded corners*
20,1,$1+$1,$2,$3,$4,$5,0*
20,1,$1+$1,$4,$5,$6,$7,0*
20,1,$1+$1,$6,$7,$8,$9,0*
20,1,$1+$1,$8,$9,$2,$3,0*%
G04 Aperture macros list end*
%ADD10C,0.150000*%
%ADD11C,0.120000*%
%ADD12RoundRect,0.218750X0.218750X0.256250X-0.218750X0.256250X-0.218750X-0.256250X0.218750X-0.256250X0*%
%ADD13RoundRect,0.225000X0.250000X-0.225000X0.250000X0.225000X-0.250000X0.225000X-0.250000X-0.225000X0*%
%ADD14RoundRect,0.200000X0.275000X-0.200000X0.275000X0.200000X-0.275000X0.200000X-0.275000X-0.200000X0*%
%ADD15RoundRect,0.200000X0.200000X0.275000X-0.200000X0.275000X-0.200000X-0.275000X0.200000X-0.275000X0*%
%ADD16C,0.650000*%
%ADD17R,1.150000X0.300000*%
%ADD18O,1.600000X1.000000*%
%ADD19O,2.100000X1.000000*%
%ADD20RoundRect,0.225000X-0.250000X0.225000X-0.250000X-0.225000X0.250000X-0.225000X0.250000X0.225000X0*%
%ADD21RoundRect,0.225000X-0.225000X-0.250000X0.225000X-0.250000X0.225000X0.250000X-0.225000X0.250000X0*%
%ADD22RoundRect,0.150000X-0.512500X-0.150000X0.512500X-0.150000X0.512500X0.150000X-0.512500X0.150000X0*%
%ADD23RoundRect,0.062500X0.375000X0.062500X-0.375000X0.062500X-0.375000X-0.062500X0.375000X-0.062500X0*%
%ADD24RoundRect,0.062500X0.062500X0.375000X-0.062500X0.375000X-0.062500X-0.375000X0.062500X-0.375000X0*%
%ADD25R,3.300000X3.300000*%
%ADD26RoundRect,0.200000X-0.275000X0.200000X-0.275000X-0.200000X0.275000X-0.200000X0.275000X0.200000X0*%
%ADD27C,1.448000*%
%ADD28R,1.700000X1.700000*%
%ADD29O,1.700000X1.700000*%
G04 APERTURE END LIST*
D10*
X140909523Y-93861904D02*
X140909523Y-93061904D01*
X141100000Y-93061904D01*
X141214285Y-93100000D01*
X141290476Y-93176190D01*
X141328571Y-93252380D01*
X141366666Y-93404761D01*
X141366666Y-93519047D01*
X141328571Y-93671428D01*
X141290476Y-93747619D01*
X141214285Y-93823809D01*
X141100000Y-93861904D01*
X140909523Y-93861904D01*
X142128571Y-93861904D02*
X141671428Y-93861904D01*
X141900000Y-93861904D02*
X141900000Y-93061904D01*
X141823809Y-93176190D01*
X141747619Y-93252380D01*
X141671428Y-93290476D01*
X145285714Y-106133333D02*
X145323809Y-106171428D01*
X145361904Y-106285714D01*
X145361904Y-106361904D01*
X145323809Y-106476190D01*
X145247619Y-106552380D01*
X145171428Y-106590476D01*
X145019047Y-106628571D01*
X144904761Y-106628571D01*
X144752380Y-106590476D01*
X144676190Y-106552380D01*
X144600000Y-106476190D01*
X144561904Y-106361904D01*
X144561904Y-106285714D01*
X144600000Y-106171428D01*
X144638095Y-106133333D01*
X144904761Y-105676190D02*
X144866666Y-105752380D01*
X144828571Y-105790476D01*
X144752380Y-105828571D01*
X144714285Y-105828571D01*
X144638095Y-105790476D01*
X144600000Y-105752380D01*
X144561904Y-105676190D01*
X144561904Y-105523809D01*
X144600000Y-105447619D01*
X144638095Y-105409523D01*
X144714285Y-105371428D01*
X144752380Y-105371428D01*
X144828571Y-105409523D01*
X144866666Y-105447619D01*
X144904761Y-105523809D01*
X144904761Y-105676190D01*
X144942857Y-105752380D01*
X144980952Y-105790476D01*
X145057142Y-105828571D01*
X145209523Y-105828571D01*
X145285714Y-105790476D01*
X145323809Y-105752380D01*
X145361904Y-105676190D01*
X145361904Y-105523809D01*
X145323809Y-105447619D01*
X145285714Y-105409523D01*
X145209523Y-105371428D01*
X145057142Y-105371428D01*
X144980952Y-105409523D01*
X144942857Y-105447619D01*
X144904761Y-105523809D01*
X148361904Y-103133333D02*
X147980952Y-103400000D01*
X148361904Y-103590476D02*
X147561904Y-103590476D01*
X147561904Y-103285714D01*
X147600000Y-103209523D01*
X147638095Y-103171428D01*
X147714285Y-103133333D01*
X147828571Y-103133333D01*
X147904761Y-103171428D01*
X147942857Y-103209523D01*
X147980952Y-103285714D01*
X147980952Y-103590476D01*
X147561904Y-102866666D02*
X147561904Y-102371428D01*
X147866666Y-102638095D01*
X147866666Y-102523809D01*
X147904761Y-102447619D01*
X147942857Y-102409523D01*
X148019047Y-102371428D01*
X148209523Y-102371428D01*
X148285714Y-102409523D01*
X148323809Y-102447619D01*
X148361904Y-102523809D01*
X148361904Y-102752380D01*
X148323809Y-102828571D01*
X148285714Y-102866666D01*
X144916666Y-90761904D02*
X144650000Y-90380952D01*
X144459523Y-90761904D02*
X144459523Y-89961904D01*
X144764285Y-89961904D01*
X144840476Y-90000000D01*
X144878571Y-90038095D01*
X144916666Y-90114285D01*
X144916666Y-90228571D01*
X144878571Y-90304761D01*
X144840476Y-90342857D01*
X144764285Y-90380952D01*
X144459523Y-90380952D01*
X145183333Y-89961904D02*
X145716666Y-89961904D01*
X145373809Y-90761904D01*
X138483333Y-105061904D02*
X138483333Y-105633333D01*
X138445238Y-105747619D01*
X138369047Y-105823809D01*
X138254761Y-105861904D01*
X138178571Y-105861904D01*
X139283333Y-105861904D02*
X138826190Y-105861904D01*
X139054761Y-105861904D02*
X139054761Y-105061904D01*
X138978571Y-105176190D01*
X138902380Y-105252380D01*
X138826190Y-105290476D01*
X148361904Y-92754880D02*
X147980952Y-93021547D01*
X148361904Y-93212023D02*
X147561904Y-93212023D01*
X147561904Y-92907261D01*
X147600000Y-92831071D01*
X147638095Y-92792976D01*
X147714285Y-92754880D01*
X147828571Y-92754880D01*
X147904761Y-92792976D01*
X147942857Y-92831071D01*
X147980952Y-92907261D01*
X147980952Y-93212023D01*
X147638095Y-92450119D02*
X147600000Y-92412023D01*
X147561904Y-92335833D01*
X147561904Y-92145357D01*
X147600000Y-92069166D01*
X147638095Y-92031071D01*
X147714285Y-91992976D01*
X147790476Y-91992976D01*
X147904761Y-92031071D01*
X148361904Y-92488214D01*
X148361904Y-91992976D01*
X146116666Y-111535714D02*
X146078571Y-111573809D01*
X145964285Y-111611904D01*
X145888095Y-111611904D01*
X145773809Y-111573809D01*
X145697619Y-111497619D01*
X145659523Y-111421428D01*
X145621428Y-111269047D01*
X145621428Y-111154761D01*
X145659523Y-111002380D01*
X145697619Y-110926190D01*
X145773809Y-110850000D01*
X145888095Y-110811904D01*
X145964285Y-110811904D01*
X146078571Y-110850000D01*
X146116666Y-110888095D01*
X146878571Y-111611904D02*
X146421428Y-111611904D01*
X146650000Y-111611904D02*
X146650000Y-110811904D01*
X146573809Y-110926190D01*
X146497619Y-111002380D01*
X146421428Y-111040476D01*
X155866666Y-101285714D02*
X155828571Y-101323809D01*
X155714285Y-101361904D01*
X155638095Y-101361904D01*
X155523809Y-101323809D01*
X155447619Y-101247619D01*
X155409523Y-101171428D01*
X155371428Y-101019047D01*
X155371428Y-100904761D01*
X155409523Y-100752380D01*
X155447619Y-100676190D01*
X155523809Y-100600000D01*
X155638095Y-100561904D01*
X155714285Y-100561904D01*
X155828571Y-100600000D01*
X155866666Y-100638095D01*
X156133333Y-100561904D02*
X156628571Y-100561904D01*
X156361904Y-100866666D01*
X156476190Y-100866666D01*
X156552380Y-100904761D01*
X156590476Y-100942857D01*
X156628571Y-101019047D01*
X156628571Y-101209523D01*
X156590476Y-101285714D01*
X156552380Y-101323809D01*
X156476190Y-101361904D01*
X156247619Y-101361904D01*
X156171428Y-101323809D01*
X156133333Y-101285714D01*
X146785714Y-99633333D02*
X146823809Y-99671428D01*
X146861904Y-99785714D01*
X146861904Y-99861904D01*
X146823809Y-99976190D01*
X146747619Y-100052380D01*
X146671428Y-100090476D01*
X146519047Y-100128571D01*
X146404761Y-100128571D01*
X146252380Y-100090476D01*
X146176190Y-100052380D01*
X146100000Y-99976190D01*
X146061904Y-99861904D01*
X146061904Y-99785714D01*
X146100000Y-99671428D01*
X146138095Y-99633333D01*
X146328571Y-98947619D02*
X146861904Y-98947619D01*
X146023809Y-99138095D02*
X146595238Y-99328571D01*
X146595238Y-98833333D01*
X148640476Y-110811904D02*
X148640476Y-111459523D01*
X148678571Y-111535714D01*
X148716666Y-111573809D01*
X148792857Y-111611904D01*
X148945238Y-111611904D01*
X149021428Y-111573809D01*
X149059523Y-111535714D01*
X149097619Y-111459523D01*
X149097619Y-110811904D01*
X149897619Y-111611904D02*
X149440476Y-111611904D01*
X149669047Y-111611904D02*
X149669047Y-110811904D01*
X149592857Y-110926190D01*
X149516666Y-111002380D01*
X149440476Y-111040476D01*
X150640476Y-95811904D02*
X150640476Y-96459523D01*
X150678571Y-96535714D01*
X150716666Y-96573809D01*
X150792857Y-96611904D01*
X150945238Y-96611904D01*
X151021428Y-96573809D01*
X151059523Y-96535714D01*
X151097619Y-96459523D01*
X151097619Y-95811904D01*
X151440476Y-95888095D02*
X151478571Y-95850000D01*
X151554761Y-95811904D01*
X151745238Y-95811904D01*
X151821428Y-95850000D01*
X151859523Y-95888095D01*
X151897619Y-95964285D01*
X151897619Y-96040476D01*
X151859523Y-96154761D01*
X151402380Y-96611904D01*
X151897619Y-96611904D01*
X152116666Y-111535714D02*
X152078571Y-111573809D01*
X151964285Y-111611904D01*
X151888095Y-111611904D01*
X151773809Y-111573809D01*
X151697619Y-111497619D01*
X151659523Y-111421428D01*
X151621428Y-111269047D01*
X151621428Y-111154761D01*
X151659523Y-111002380D01*
X151697619Y-110926190D01*
X151773809Y-110850000D01*
X151888095Y-110811904D01*
X151964285Y-110811904D01*
X152078571Y-110850000D01*
X152116666Y-110888095D01*
X152421428Y-110888095D02*
X152459523Y-110850000D01*
X152535714Y-110811904D01*
X152726190Y-110811904D01*
X152802380Y-110850000D01*
X152840476Y-110888095D01*
X152878571Y-110964285D01*
X152878571Y-111040476D01*
X152840476Y-111154761D01*
X152383333Y-111611904D01*
X152878571Y-111611904D01*
X146702380Y-92592976D02*
X146226190Y-92926309D01*
X146702380Y-93164404D02*
X145702380Y-93164404D01*
X145702380Y-92783452D01*
X145750000Y-92688214D01*
X145797619Y-92640595D01*
X145892857Y-92592976D01*
X146035714Y-92592976D01*
X146130952Y-92640595D01*
X146178571Y-92688214D01*
X146226190Y-92783452D01*
X146226190Y-93164404D01*
X146035714Y-91735833D02*
X146702380Y-91735833D01*
X145654761Y-91973928D02*
X146369047Y-92212023D01*
X146369047Y-91592976D01*
X151361904Y-105383333D02*
X150980952Y-105650000D01*
X151361904Y-105840476D02*
X150561904Y-105840476D01*
X150561904Y-105535714D01*
X150600000Y-105459523D01*
X150638095Y-105421428D01*
X150714285Y-105383333D01*
X150828571Y-105383333D01*
X150904761Y-105421428D01*
X150942857Y-105459523D01*
X150980952Y-105535714D01*
X150980952Y-105840476D01*
X150561904Y-104659523D02*
X150561904Y-105040476D01*
X150942857Y-105078571D01*
X150904761Y-105040476D01*
X150866666Y-104964285D01*
X150866666Y-104773809D01*
X150904761Y-104697619D01*
X150942857Y-104659523D01*
X151019047Y-104621428D01*
X151209523Y-104621428D01*
X151285714Y-104659523D01*
X151323809Y-104697619D01*
X151361904Y-104773809D01*
X151361904Y-104964285D01*
X151323809Y-105040476D01*
X151285714Y-105078571D01*
X154535714Y-105383333D02*
X154573809Y-105421428D01*
X154611904Y-105535714D01*
X154611904Y-105611904D01*
X154573809Y-105726190D01*
X154497619Y-105802380D01*
X154421428Y-105840476D01*
X154269047Y-105878571D01*
X154154761Y-105878571D01*
X154002380Y-105840476D01*
X153926190Y-105802380D01*
X153850000Y-105726190D01*
X153811904Y-105611904D01*
X153811904Y-105535714D01*
X153850000Y-105421428D01*
X153888095Y-105383333D01*
X153811904Y-104659523D02*
X153811904Y-105040476D01*
X154192857Y-105078571D01*
X154154761Y-105040476D01*
X154116666Y-104964285D01*
X154116666Y-104773809D01*
X154154761Y-104697619D01*
X154192857Y-104659523D01*
X154269047Y-104621428D01*
X154459523Y-104621428D01*
X154535714Y-104659523D01*
X154573809Y-104697619D01*
X154611904Y-104773809D01*
X154611904Y-104964285D01*
X154573809Y-105040476D01*
X154535714Y-105078571D01*
X142616666Y-108111904D02*
X142350000Y-107730952D01*
X142159523Y-108111904D02*
X142159523Y-107311904D01*
X142464285Y-107311904D01*
X142540476Y-107350000D01*
X142578571Y-107388095D01*
X142616666Y-107464285D01*
X142616666Y-107578571D01*
X142578571Y-107654761D01*
X142540476Y-107692857D01*
X142464285Y-107730952D01*
X142159523Y-107730952D01*
X143378571Y-108111904D02*
X142921428Y-108111904D01*
X143150000Y-108111904D02*
X143150000Y-107311904D01*
X143073809Y-107426190D01*
X142997619Y-107502380D01*
X142921428Y-107540476D01*
X167321666Y-86582380D02*
X167321666Y-87296666D01*
X167274047Y-87439523D01*
X167178809Y-87534761D01*
X167035952Y-87582380D01*
X166940714Y-87582380D01*
X167750238Y-86677619D02*
X167797857Y-86630000D01*
X167893095Y-86582380D01*
X168131190Y-86582380D01*
X168226428Y-86630000D01*
X168274047Y-86677619D01*
X168321666Y-86772857D01*
X168321666Y-86868095D01*
X168274047Y-87010952D01*
X167702619Y-87582380D01*
X168321666Y-87582380D01*
D11*
X144985000Y-92765000D02*
X142700000Y-92765000D01*
X144985000Y-94235000D02*
X144985000Y-92765000D01*
X142700000Y-94235000D02*
X144985000Y-94235000D01*
X145740000Y-105390580D02*
X145740000Y-105109420D01*
X146760000Y-105390580D02*
X146760000Y-105109420D01*
X148522500Y-105487258D02*
X148522500Y-105012742D01*
X147477500Y-105487258D02*
X147477500Y-105012742D01*
X143737258Y-91227500D02*
X143262742Y-91227500D01*
X143737258Y-92272500D02*
X143262742Y-92272500D01*
X138420000Y-104580000D02*
X136715000Y-104580000D01*
X140430000Y-104580000D02*
X142350000Y-104580000D01*
X142350000Y-95420000D02*
X140430000Y-95420000D01*
X136715000Y-104580000D02*
X136715000Y-95420000D01*
X136715000Y-95420000D02*
X138420000Y-95420000D01*
X147477500Y-95237258D02*
X147477500Y-94762742D01*
X148522500Y-95237258D02*
X148522500Y-94762742D01*
X145740000Y-108859420D02*
X145740000Y-109140580D01*
X146760000Y-108859420D02*
X146760000Y-109140580D01*
X155859420Y-102760000D02*
X156140580Y-102760000D01*
X155859420Y-101740000D02*
X156140580Y-101740000D01*
X147010000Y-101859420D02*
X147010000Y-102140580D01*
X145990000Y-101859420D02*
X145990000Y-102140580D01*
X149250000Y-107440000D02*
X150050000Y-107440000D01*
X149250000Y-107440000D02*
X147450000Y-107440000D01*
X149250000Y-110560000D02*
X150050000Y-110560000D01*
X149250000Y-110560000D02*
X148450000Y-110560000D01*
X149115000Y-102610000D02*
X148640000Y-102610000D01*
X153385000Y-102610000D02*
X153860000Y-102610000D01*
X148640000Y-97390000D02*
X148640000Y-97865000D01*
X149115000Y-97390000D02*
X148640000Y-97390000D01*
X153385000Y-97390000D02*
X153860000Y-97390000D01*
X148640000Y-102610000D02*
X148640000Y-102135000D01*
X153860000Y-97390000D02*
X153860000Y-97865000D01*
X152760000Y-108859420D02*
X152760000Y-109140580D01*
X151740000Y-108859420D02*
X151740000Y-109140580D01*
X146772500Y-94762742D02*
X146772500Y-95237258D01*
X145727500Y-94762742D02*
X145727500Y-95237258D01*
X149227500Y-105012742D02*
X149227500Y-105487258D01*
X150272500Y-105012742D02*
X150272500Y-105487258D01*
X152490000Y-105109420D02*
X152490000Y-105390580D01*
X153510000Y-105109420D02*
X153510000Y-105390580D01*
X142887258Y-105827500D02*
X142412742Y-105827500D01*
X142887258Y-106872500D02*
X142412742Y-106872500D01*
X174640000Y-109340000D02*
X174640000Y-110100000D01*
X174640000Y-104260000D02*
X174640000Y-105020000D01*
X163042929Y-105020000D02*
X163497071Y-105020000D01*
X168640000Y-104260000D02*
X174640000Y-104260000D01*
X174640000Y-89020000D02*
X174640000Y-89780000D01*
X165582929Y-102480000D02*
X165980000Y-102480000D01*
X165582929Y-94860000D02*
X165980000Y-94860000D01*
X165582929Y-89020000D02*
X165980000Y-89020000D01*
X163042929Y-92320000D02*
X163497071Y-92320000D01*
X165980000Y-100830000D02*
X168640000Y-100830000D01*
X163042929Y-99180000D02*
X163497071Y-99180000D01*
X165582929Y-110100000D02*
X165980000Y-110100000D01*
X165980000Y-88070000D02*
X165980000Y-113590000D01*
X160730000Y-88130000D02*
X162000000Y-88130000D01*
X163042929Y-99940000D02*
X163497071Y-99940000D01*
X165582929Y-99940000D02*
X165980000Y-99940000D01*
X168640000Y-111880000D02*
X174640000Y-111880000D01*
X163110000Y-89020000D02*
X163497071Y-89020000D01*
X163042929Y-111880000D02*
X163497071Y-111880000D01*
X174640000Y-99940000D02*
X168640000Y-99940000D01*
X163042929Y-97400000D02*
X163497071Y-97400000D01*
X165582929Y-111880000D02*
X165980000Y-111880000D01*
X165582929Y-101720000D02*
X165980000Y-101720000D01*
X165980000Y-95750000D02*
X168640000Y-95750000D01*
X174640000Y-102480000D02*
X168640000Y-102480000D01*
X163042929Y-96640000D02*
X163497071Y-96640000D01*
X168640000Y-91560000D02*
X174640000Y-91560000D01*
X168640000Y-109340000D02*
X174640000Y-109340000D01*
X165582929Y-92320000D02*
X165980000Y-92320000D01*
X168640000Y-89320000D02*
X174640000Y-89320000D01*
X165582929Y-91560000D02*
X165980000Y-91560000D01*
X168640000Y-89200000D02*
X174640000Y-89200000D01*
X165582929Y-89780000D02*
X165980000Y-89780000D01*
X174640000Y-99180000D02*
X174640000Y-99940000D01*
X174640000Y-92320000D02*
X168640000Y-92320000D01*
X165582929Y-107560000D02*
X165980000Y-107560000D01*
X163042929Y-91560000D02*
X163497071Y-91560000D01*
X168640000Y-101720000D02*
X174640000Y-101720000D01*
X165980000Y-90670000D02*
X168640000Y-90670000D01*
X174640000Y-107560000D02*
X168640000Y-107560000D01*
X165980000Y-108450000D02*
X168640000Y-108450000D01*
X168640000Y-94100000D02*
X174640000Y-94100000D01*
X163042929Y-110100000D02*
X163497071Y-110100000D01*
X174640000Y-111880000D02*
X174640000Y-112640000D01*
X174640000Y-89780000D02*
X168640000Y-89780000D01*
X174640000Y-94100000D02*
X174640000Y-94860000D01*
X163042929Y-106800000D02*
X163497071Y-106800000D01*
X163042929Y-94100000D02*
X163497071Y-94100000D01*
X168640000Y-99180000D02*
X174640000Y-99180000D01*
X165582929Y-104260000D02*
X165980000Y-104260000D01*
X163110000Y-89780000D02*
X163497071Y-89780000D01*
X163042929Y-102480000D02*
X163497071Y-102480000D01*
X165582929Y-109340000D02*
X165980000Y-109340000D01*
X165582929Y-94100000D02*
X165980000Y-94100000D01*
X168640000Y-96640000D02*
X174640000Y-96640000D01*
X163042929Y-112640000D02*
X163497071Y-112640000D01*
X165980000Y-103370000D02*
X168640000Y-103370000D01*
X168640000Y-106800000D02*
X174640000Y-106800000D01*
X160730000Y-89400000D02*
X160730000Y-88130000D01*
X174640000Y-97400000D02*
X168640000Y-97400000D01*
X174640000Y-94860000D02*
X168640000Y-94860000D01*
X163042929Y-104260000D02*
X163497071Y-104260000D01*
X165980000Y-105910000D02*
X168640000Y-105910000D01*
X168640000Y-89560000D02*
X174640000Y-89560000D01*
X174640000Y-91560000D02*
X174640000Y-92320000D01*
X165582929Y-105020000D02*
X165980000Y-105020000D01*
X168640000Y-89440000D02*
X174640000Y-89440000D01*
X163042929Y-101720000D02*
X163497071Y-101720000D01*
X165980000Y-93210000D02*
X168640000Y-93210000D01*
X165582929Y-97400000D02*
X165980000Y-97400000D01*
X174640000Y-101720000D02*
X174640000Y-102480000D01*
X165582929Y-106800000D02*
X165980000Y-106800000D01*
X163042929Y-94860000D02*
X163497071Y-94860000D01*
X165582929Y-99180000D02*
X165980000Y-99180000D01*
X168640000Y-89080000D02*
X174640000Y-89080000D01*
X163042929Y-107560000D02*
X163497071Y-107560000D01*
X174640000Y-106800000D02*
X174640000Y-107560000D01*
X165980000Y-98290000D02*
X168640000Y-98290000D01*
X174640000Y-96640000D02*
X174640000Y-97400000D01*
X165582929Y-96640000D02*
X165980000Y-96640000D01*
X163042929Y-109340000D02*
X163497071Y-109340000D01*
X165980000Y-113590000D02*
X168640000Y-113590000D01*
X168640000Y-89680000D02*
X174640000Y-89680000D01*
X165582929Y-112640000D02*
X165980000Y-112640000D01*
X174640000Y-105020000D02*
X168640000Y-105020000D01*
X168640000Y-88070000D02*
X165980000Y-88070000D01*
X168640000Y-89020000D02*
X174640000Y-89020000D01*
X165980000Y-110990000D02*
X168640000Y-110990000D01*
X174640000Y-110100000D02*
X168640000Y-110100000D01*
X174640000Y-112640000D02*
X168640000Y-112640000D01*
X168640000Y-113590000D02*
X168640000Y-88070000D01*
%LPC*%
D12*
X144287500Y-93500000D03*
X142712500Y-93500000D03*
D13*
X146250000Y-106025000D03*
X146250000Y-104475000D03*
D14*
X148000000Y-106075000D03*
X148000000Y-104425000D03*
D15*
X144325000Y-91750000D03*
X142675000Y-91750000D03*
D16*
X143105000Y-97110000D03*
X143105000Y-102890000D03*
D17*
X144170000Y-96650000D03*
X144170000Y-97450000D03*
X144170000Y-98750000D03*
X144170000Y-99750000D03*
X144170000Y-100250000D03*
X144170000Y-101250000D03*
X144170000Y-102550000D03*
X144170000Y-103350000D03*
X144170000Y-103050000D03*
X144170000Y-102250000D03*
X144170000Y-101750000D03*
X144170000Y-100750000D03*
X144170000Y-99250000D03*
X144170000Y-98250000D03*
X144170000Y-97750000D03*
X144170000Y-96950000D03*
D18*
X139425000Y-104320000D03*
D19*
X143605000Y-95680000D03*
X143605000Y-104320000D03*
D18*
X139425000Y-95680000D03*
D14*
X148000000Y-95825000D03*
X148000000Y-94175000D03*
D20*
X146250000Y-108225000D03*
X146250000Y-109775000D03*
D21*
X155225000Y-102250000D03*
X156775000Y-102250000D03*
D20*
X146500000Y-101225000D03*
X146500000Y-102775000D03*
D22*
X148112500Y-108050000D03*
X148112500Y-109000000D03*
X148112500Y-109950000D03*
X150387500Y-109950000D03*
X150387500Y-108050000D03*
D23*
X153687500Y-101750000D03*
X153687500Y-101250000D03*
X153687500Y-100750000D03*
X153687500Y-100250000D03*
X153687500Y-99750000D03*
X153687500Y-99250000D03*
X153687500Y-98750000D03*
X153687500Y-98250000D03*
D24*
X153000000Y-97562500D03*
X152500000Y-97562500D03*
X152000000Y-97562500D03*
X151500000Y-97562500D03*
X151000000Y-97562500D03*
X150500000Y-97562500D03*
X150000000Y-97562500D03*
X149500000Y-97562500D03*
D23*
X148812500Y-98250000D03*
X148812500Y-98750000D03*
X148812500Y-99250000D03*
X148812500Y-99750000D03*
X148812500Y-100250000D03*
X148812500Y-100750000D03*
X148812500Y-101250000D03*
X148812500Y-101750000D03*
D24*
X149500000Y-102437500D03*
X150000000Y-102437500D03*
X150500000Y-102437500D03*
X151000000Y-102437500D03*
X151500000Y-102437500D03*
X152000000Y-102437500D03*
X152500000Y-102437500D03*
X153000000Y-102437500D03*
D25*
X151250000Y-100000000D03*
D20*
X152250000Y-108225000D03*
X152250000Y-109775000D03*
D26*
X146250000Y-94175000D03*
X146250000Y-95825000D03*
X149750000Y-104425000D03*
X149750000Y-106075000D03*
D20*
X153000000Y-104475000D03*
X153000000Y-106025000D03*
D27*
X140000000Y-93750000D03*
D15*
X143475000Y-106350000D03*
X141825000Y-106350000D03*
D27*
X140000000Y-106250000D03*
D28*
X162000000Y-89400000D03*
D29*
X164540000Y-89400000D03*
X162000000Y-91940000D03*
X164540000Y-91940000D03*
X162000000Y-94480000D03*
X164540000Y-94480000D03*
X162000000Y-97020000D03*
X164540000Y-97020000D03*
X162000000Y-99560000D03*
X164540000Y-99560000D03*
X162000000Y-102100000D03*
X164540000Y-102100000D03*
X162000000Y-104640000D03*
X164540000Y-104640000D03*
X162000000Y-107180000D03*
X164540000Y-107180000D03*
X162000000Y-109720000D03*
X164540000Y-109720000D03*
X162000000Y-112260000D03*
X164540000Y-112260000D03*
M02*
