M48
; DRILL file {KiCad 5.99.0-unknown-4594d88417~130~ubuntu20.04.1} date Wed Jun 30 06:15:00 2021
; FORMAT={-:-/ absolute / metric / decimal}
; #@! TF.CreationDate,2021-06-30T06:15:00+07:00
; #@! TF.GenerationSoftware,Kicad,Pcbnew,5.99.0-unknown-4594d88417~130~ubuntu20.04.1
; #@! TF.FileFunction,Plated,1,2,PTH
FMAT,2
METRIC
; #@! TA.AperFunction,Plated,PTH,ViaDrill
T1C0.300
; #@! TA.AperFunction,Plated,PTH,ComponentDrill
T2C0.600
; #@! TA.AperFunction,Plated,PTH,ComponentDrill
T3C1.000
%
G90
G05
T1
X142.777Y-106.35
X143.0Y-101.5
X144.174Y-106.35
X144.287Y-94.462
X145.0Y-96.25
X145.087Y-103.175
X145.25Y-99.5
X145.25Y-100.777
X145.5Y-98.0
X146.25Y-93.25
X146.25Y-110.75
X146.375Y-103.625
X147.5Y-100.25
X148.0Y-93.25
X148.027Y-101.277
X149.25Y-109.0
X149.75Y-107.0
X149.973Y-103.25
X150.25Y-96.5
X150.25Y-99.0
X150.25Y-100.0
X150.25Y-101.0
X151.25Y-99.0
X151.25Y-100.0
X151.25Y-101.0
X151.25Y-107.25
X151.5Y-105.0
X151.75Y-96.5
X152.25Y-99.0
X152.25Y-100.0
X152.25Y-101.0
X152.25Y-110.75
X152.262Y-103.737
X153.0Y-107.0
X153.55Y-103.5
X153.688Y-97.562
X153.688Y-102.287
X155.1Y-100.9
X155.2Y-105.65
X155.75Y-100.25
X158.0Y-95.4
X158.55Y-102.25
X158.7Y-96.05
X159.3Y-102.8
X159.75Y-99.55
X160.3Y-98.7
X162.55Y-100.8
T3
X162.0Y-89.4
X162.0Y-91.94
X162.0Y-94.48
X162.0Y-97.02
X162.0Y-99.56
X162.0Y-102.1
X162.0Y-104.64
X162.0Y-107.18
X162.0Y-109.72
X162.0Y-112.26
X164.54Y-89.4
X164.54Y-91.94
X164.54Y-94.48
X164.54Y-97.02
X164.54Y-99.56
X164.54Y-102.1
X164.54Y-104.64
X164.54Y-107.18
X164.54Y-109.72
X164.54Y-112.26
T2
X139.725Y-95.68G85X139.125Y-95.68
G05
X139.725Y-104.32G85X139.125Y-104.32
G05
X144.155Y-95.68G85X143.055Y-95.68
G05
X144.155Y-104.32G85X143.055Y-104.32
G05
T0
M30
