%TF.GenerationSoftware,KiCad,Pcbnew,5.99.0-unknown-4594d88417~130~ubuntu20.04.1*%
%TF.CreationDate,2021-06-30T06:14:20+07:00*%
%TF.ProjectId,PmodUsbUlpi,506d6f64-5573-4625-956c-70692e6b6963,1*%
%TF.SameCoordinates,Original*%
%TF.FileFunction,Soldermask,Top*%
%TF.FilePolarity,Negative*%
%FSLAX46Y46*%
G04 Gerber Fmt 4.6, Leading zero omitted, Abs format (unit mm)*
G04 Created by KiCad (PCBNEW 5.99.0-unknown-4594d88417~130~ubuntu20.04.1) date 2021-06-30 06:14:20*
%MOMM*%
%LPD*%
G01*
G04 APERTURE LIST*
G04 Aperture macros list*
%AMRoundRect*
0 Rectangle with rounded corners*
0 $1 Rounding radius*
0 $2 $3 $4 $5 $6 $7 $8 $9 X,Y pos of 4 corners*
0 Add a 4 corners polygon primitive as box body*
4,1,4,$2,$3,$4,$5,$6,$7,$8,$9,$2,$3,0*
0 Add four circle primitives for the rounded corners*
1,1,$1+$1,$2,$3*
1,1,$1+$1,$4,$5*
1,1,$1+$1,$6,$7*
1,1,$1+$1,$8,$9*
0 Add four rect primitives between the rounded corners*
20,1,$1+$1,$2,$3,$4,$5,0*
20,1,$1+$1,$4,$5,$6,$7,0*
20,1,$1+$1,$6,$7,$8,$9,0*
20,1,$1+$1,$8,$9,$2,$3,0*%
G04 Aperture macros list end*
%ADD10RoundRect,0.218750X0.218750X0.256250X-0.218750X0.256250X-0.218750X-0.256250X0.218750X-0.256250X0*%
%ADD11RoundRect,0.225000X0.250000X-0.225000X0.250000X0.225000X-0.250000X0.225000X-0.250000X-0.225000X0*%
%ADD12RoundRect,0.200000X0.275000X-0.200000X0.275000X0.200000X-0.275000X0.200000X-0.275000X-0.200000X0*%
%ADD13RoundRect,0.200000X0.200000X0.275000X-0.200000X0.275000X-0.200000X-0.275000X0.200000X-0.275000X0*%
%ADD14C,0.650000*%
%ADD15R,1.150000X0.300000*%
%ADD16O,1.600000X1.000000*%
%ADD17O,2.100000X1.000000*%
%ADD18RoundRect,0.225000X-0.250000X0.225000X-0.250000X-0.225000X0.250000X-0.225000X0.250000X0.225000X0*%
%ADD19RoundRect,0.225000X-0.225000X-0.250000X0.225000X-0.250000X0.225000X0.250000X-0.225000X0.250000X0*%
%ADD20RoundRect,0.150000X-0.512500X-0.150000X0.512500X-0.150000X0.512500X0.150000X-0.512500X0.150000X0*%
%ADD21RoundRect,0.062500X0.375000X0.062500X-0.375000X0.062500X-0.375000X-0.062500X0.375000X-0.062500X0*%
%ADD22RoundRect,0.062500X0.062500X0.375000X-0.062500X0.375000X-0.062500X-0.375000X0.062500X-0.375000X0*%
%ADD23R,3.300000X3.300000*%
%ADD24RoundRect,0.200000X-0.275000X0.200000X-0.275000X-0.200000X0.275000X-0.200000X0.275000X0.200000X0*%
%ADD25C,1.448000*%
%ADD26R,1.700000X1.700000*%
%ADD27O,1.700000X1.700000*%
G04 APERTURE END LIST*
D10*
X144287500Y-93500000D03*
X142712500Y-93500000D03*
D11*
X146250000Y-106025000D03*
X146250000Y-104475000D03*
D12*
X148000000Y-106075000D03*
X148000000Y-104425000D03*
D13*
X144325000Y-91750000D03*
X142675000Y-91750000D03*
D14*
X143105000Y-97110000D03*
X143105000Y-102890000D03*
D15*
X144170000Y-96650000D03*
X144170000Y-97450000D03*
X144170000Y-98750000D03*
X144170000Y-99750000D03*
X144170000Y-100250000D03*
X144170000Y-101250000D03*
X144170000Y-102550000D03*
X144170000Y-103350000D03*
X144170000Y-103050000D03*
X144170000Y-102250000D03*
X144170000Y-101750000D03*
X144170000Y-100750000D03*
X144170000Y-99250000D03*
X144170000Y-98250000D03*
X144170000Y-97750000D03*
X144170000Y-96950000D03*
D16*
X139425000Y-104320000D03*
D17*
X143605000Y-95680000D03*
X143605000Y-104320000D03*
D16*
X139425000Y-95680000D03*
D12*
X148000000Y-95825000D03*
X148000000Y-94175000D03*
D18*
X146250000Y-108225000D03*
X146250000Y-109775000D03*
X155200000Y-102975000D03*
D19*
X155200000Y-104525000D03*
D18*
X146500000Y-101225000D03*
X146500000Y-102775000D03*
D20*
X148112500Y-108050000D03*
X148112500Y-109000000D03*
X148112500Y-109950000D03*
X150387500Y-109950000D03*
X150387500Y-108050000D03*
D21*
X153687500Y-101750000D03*
X153687500Y-101250000D03*
X153687500Y-100750000D03*
X153687500Y-100250000D03*
X153687500Y-99750000D03*
X153687500Y-99250000D03*
X153687500Y-98750000D03*
X153687500Y-98250000D03*
D22*
X153000000Y-97562500D03*
X152500000Y-97562500D03*
X152000000Y-97562500D03*
X151500000Y-97562500D03*
X151000000Y-97562500D03*
X150500000Y-97562500D03*
X150000000Y-97562500D03*
X149500000Y-97562500D03*
D21*
X148812500Y-98250000D03*
X148812500Y-98750000D03*
X148812500Y-99250000D03*
X148812500Y-99750000D03*
X148812500Y-100250000D03*
X148812500Y-100750000D03*
X148812500Y-101250000D03*
X148812500Y-101750000D03*
D22*
X149500000Y-102437500D03*
X150000000Y-102437500D03*
X150500000Y-102437500D03*
X151000000Y-102437500D03*
X151500000Y-102437500D03*
X152000000Y-102437500D03*
X152500000Y-102437500D03*
X153000000Y-102437500D03*
D23*
X151250000Y-100000000D03*
D18*
X152250000Y-108225000D03*
X152250000Y-109775000D03*
D24*
X146250000Y-94175000D03*
X146250000Y-95825000D03*
X149750000Y-104425000D03*
X149750000Y-106075000D03*
D18*
X153000000Y-104475000D03*
X153000000Y-106025000D03*
D25*
X140000000Y-93750000D03*
D13*
X143475000Y-106350000D03*
X141825000Y-106350000D03*
D25*
X140000000Y-106250000D03*
D26*
X162000000Y-89400000D03*
D27*
X164540000Y-89400000D03*
X162000000Y-91940000D03*
X164540000Y-91940000D03*
X162000000Y-94480000D03*
X164540000Y-94480000D03*
X162000000Y-97020000D03*
X164540000Y-97020000D03*
X162000000Y-99560000D03*
X164540000Y-99560000D03*
X162000000Y-102100000D03*
X164540000Y-102100000D03*
X162000000Y-104640000D03*
X164540000Y-104640000D03*
X162000000Y-107180000D03*
X164540000Y-107180000D03*
X162000000Y-109720000D03*
X164540000Y-109720000D03*
X162000000Y-112260000D03*
X164540000Y-112260000D03*
M02*
