%FSLAX45Y45*%
G04 Gerber Fmt 4.5, Leading zero omitted, Abs format (unit mm)*
G04 Created by KiCad (PCBNEW 5.99.0-unknown-4594d88417~130~ubuntu20.04.1) date 2021-06-30 06:15:02*
%MOMM*%
%LPD*%
G01*
G04 APERTURE LIST*
%TA.AperFunction,Profile*%
%ADD10C,0.050000*%
%TD*%
%ADD11C,0.200000*%
%ADD12C,0.065000*%
%ADD13C,0.115200*%
G04 APERTURE END LIST*
D10*
X13750000Y-9465000D02*
X13745000Y-10530000D01*
X13830546Y-9270546D02*
X14453756Y-8808178D01*
X14470000Y-11345000D02*
X13838911Y-10736959D01*
X16630000Y-8760000D02*
X16865000Y-8760000D01*
X16865000Y-11405000D02*
X16635000Y-11405000D01*
X16865000Y-8760000D02*
X16865000Y-11405000D01*
X14453756Y-8808178D02*
G75*
G02*
X14610000Y-8765000I141244J-206822D01*
G01*
X16630000Y-8760000D02*
X14610000Y-8765000D01*
X14635026Y-11401142D02*
G75*
G02*
X14470000Y-11345000I-10026J241142D01*
G01*
X13838911Y-10736959D02*
G75*
G02*
X13745000Y-10530000I181089J206959D01*
G01*
X13830546Y-9270546D02*
G75*
G03*
X13750000Y-9465000I194454J-194454D01*
G01*
X16635000Y-11405000D02*
X14635026Y-11401142D01*
D11*
D12*
X14278000Y-9678500D02*
X14343000Y-9743500D01*
X14343000Y-9678500D02*
X14278000Y-9743500D01*
X14278000Y-10256500D02*
X14343000Y-10321500D01*
X14343000Y-10256500D02*
X14278000Y-10321500D01*
D13*
X14057600Y-9375000D02*
G75*
G03*
X14057600Y-9375000I-57600J0D01*
G01*
X14057600Y-10625000D02*
G75*
G03*
X14057600Y-10625000I-57600J0D01*
G01*
D11*
X13995119Y-11719326D02*
X13995119Y-11519326D01*
X14042738Y-11519326D01*
X14071309Y-11528850D01*
X14090357Y-11547898D01*
X14099881Y-11566946D01*
X14109405Y-11605041D01*
X14109405Y-11633612D01*
X14099881Y-11671707D01*
X14090357Y-11690755D01*
X14071309Y-11709803D01*
X14042738Y-11719326D01*
X13995119Y-11719326D01*
X14195119Y-11719326D02*
X14195119Y-11585993D01*
X14195119Y-11624088D02*
X14204643Y-11605041D01*
X14214167Y-11595517D01*
X14233214Y-11585993D01*
X14252262Y-11585993D01*
X14318928Y-11719326D02*
X14318928Y-11585993D01*
X14318928Y-11519326D02*
X14309405Y-11528850D01*
X14318928Y-11538374D01*
X14328452Y-11528850D01*
X14318928Y-11519326D01*
X14318928Y-11538374D01*
X14442738Y-11719326D02*
X14423690Y-11709803D01*
X14414167Y-11690755D01*
X14414167Y-11519326D01*
X14547500Y-11719326D02*
X14528452Y-11709803D01*
X14518928Y-11690755D01*
X14518928Y-11519326D01*
X14776071Y-11719326D02*
X14776071Y-11519326D01*
X14842738Y-11662184D01*
X14909405Y-11519326D01*
X14909405Y-11719326D01*
X15090357Y-11719326D02*
X15090357Y-11614565D01*
X15080833Y-11595517D01*
X15061786Y-11585993D01*
X15023690Y-11585993D01*
X15004643Y-11595517D01*
X15090357Y-11709803D02*
X15071309Y-11719326D01*
X15023690Y-11719326D01*
X15004643Y-11709803D01*
X14995119Y-11690755D01*
X14995119Y-11671707D01*
X15004643Y-11652660D01*
X15023690Y-11643136D01*
X15071309Y-11643136D01*
X15090357Y-11633612D01*
X15185595Y-11585993D02*
X15185595Y-11785993D01*
X15185595Y-11595517D02*
X15204643Y-11585993D01*
X15242738Y-11585993D01*
X15261786Y-11595517D01*
X15271309Y-11605041D01*
X15280833Y-11624088D01*
X15280833Y-11681231D01*
X15271309Y-11700279D01*
X15261786Y-11709803D01*
X15242738Y-11719326D01*
X15204643Y-11719326D01*
X15185595Y-11709803D01*
X15366548Y-11700279D02*
X15376071Y-11709803D01*
X15366548Y-11719326D01*
X15357024Y-11709803D01*
X15366548Y-11700279D01*
X15366548Y-11719326D01*
X15366548Y-11595517D02*
X15376071Y-11605041D01*
X15366548Y-11614565D01*
X15357024Y-11605041D01*
X15366548Y-11595517D01*
X15366548Y-11614565D01*
D12*
X13672500Y-12016350D02*
X13737500Y-12081350D01*
X13737500Y-12016350D02*
X13672500Y-12081350D01*
D11*
X14033214Y-11939326D02*
X14052262Y-11939326D01*
X14071309Y-11948850D01*
X14080833Y-11958374D01*
X14090357Y-11977422D01*
X14099881Y-12015517D01*
X14099881Y-12063136D01*
X14090357Y-12101231D01*
X14080833Y-12120279D01*
X14071309Y-12129803D01*
X14052262Y-12139326D01*
X14033214Y-12139326D01*
X14014167Y-12129803D01*
X14004643Y-12120279D01*
X13995119Y-12101231D01*
X13985595Y-12063136D01*
X13985595Y-12015517D01*
X13995119Y-11977422D01*
X14004643Y-11958374D01*
X14014167Y-11948850D01*
X14033214Y-11939326D01*
X14185595Y-12120279D02*
X14195119Y-12129803D01*
X14185595Y-12139326D01*
X14176071Y-12129803D01*
X14185595Y-12120279D01*
X14185595Y-12139326D01*
X14366548Y-11939326D02*
X14328452Y-11939326D01*
X14309405Y-11948850D01*
X14299881Y-11958374D01*
X14280833Y-11986946D01*
X14271309Y-12025041D01*
X14271309Y-12101231D01*
X14280833Y-12120279D01*
X14290357Y-12129803D01*
X14309405Y-12139326D01*
X14347500Y-12139326D01*
X14366548Y-12129803D01*
X14376071Y-12120279D01*
X14385595Y-12101231D01*
X14385595Y-12053612D01*
X14376071Y-12034565D01*
X14366548Y-12025041D01*
X14347500Y-12015517D01*
X14309405Y-12015517D01*
X14290357Y-12025041D01*
X14280833Y-12034565D01*
X14271309Y-12053612D01*
X14566548Y-11939326D02*
X14471309Y-11939326D01*
X14461786Y-12034565D01*
X14471309Y-12025041D01*
X14490357Y-12015517D01*
X14537976Y-12015517D01*
X14557024Y-12025041D01*
X14566548Y-12034565D01*
X14576071Y-12053612D01*
X14576071Y-12101231D01*
X14566548Y-12120279D01*
X14557024Y-12129803D01*
X14537976Y-12139326D01*
X14490357Y-12139326D01*
X14471309Y-12129803D01*
X14461786Y-12120279D01*
X14699881Y-11939326D02*
X14718928Y-11939326D01*
X14737976Y-11948850D01*
X14747500Y-11958374D01*
X14757024Y-11977422D01*
X14766548Y-12015517D01*
X14766548Y-12063136D01*
X14757024Y-12101231D01*
X14747500Y-12120279D01*
X14737976Y-12129803D01*
X14718928Y-12139326D01*
X14699881Y-12139326D01*
X14680833Y-12129803D01*
X14671309Y-12120279D01*
X14661786Y-12101231D01*
X14652262Y-12063136D01*
X14652262Y-12015517D01*
X14661786Y-11977422D01*
X14671309Y-11958374D01*
X14680833Y-11948850D01*
X14699881Y-11939326D01*
X14852262Y-12139326D02*
X14852262Y-12005993D01*
X14852262Y-12025041D02*
X14861786Y-12015517D01*
X14880833Y-12005993D01*
X14909405Y-12005993D01*
X14928452Y-12015517D01*
X14937976Y-12034565D01*
X14937976Y-12139326D01*
X14937976Y-12034565D02*
X14947500Y-12015517D01*
X14966548Y-12005993D01*
X14995119Y-12005993D01*
X15014167Y-12015517D01*
X15023690Y-12034565D01*
X15023690Y-12139326D01*
X15118928Y-12139326D02*
X15118928Y-12005993D01*
X15118928Y-12025041D02*
X15128452Y-12015517D01*
X15147500Y-12005993D01*
X15176071Y-12005993D01*
X15195119Y-12015517D01*
X15204643Y-12034565D01*
X15204643Y-12139326D01*
X15204643Y-12034565D02*
X15214167Y-12015517D01*
X15233214Y-12005993D01*
X15261786Y-12005993D01*
X15280833Y-12015517D01*
X15290357Y-12034565D01*
X15290357Y-12139326D01*
X15680833Y-11929803D02*
X15509405Y-12186946D01*
X15937976Y-11939326D02*
X15957024Y-11939326D01*
X15976071Y-11948850D01*
X15985595Y-11958374D01*
X15995119Y-11977422D01*
X16004643Y-12015517D01*
X16004643Y-12063136D01*
X15995119Y-12101231D01*
X15985595Y-12120279D01*
X15976071Y-12129803D01*
X15957024Y-12139326D01*
X15937976Y-12139326D01*
X15918928Y-12129803D01*
X15909405Y-12120279D01*
X15899881Y-12101231D01*
X15890357Y-12063136D01*
X15890357Y-12015517D01*
X15899881Y-11977422D01*
X15909405Y-11958374D01*
X15918928Y-11948850D01*
X15937976Y-11939326D01*
X16090357Y-12120279D02*
X16099881Y-12129803D01*
X16090357Y-12139326D01*
X16080833Y-12129803D01*
X16090357Y-12120279D01*
X16090357Y-12139326D01*
X16223690Y-11939326D02*
X16242738Y-11939326D01*
X16261786Y-11948850D01*
X16271309Y-11958374D01*
X16280833Y-11977422D01*
X16290357Y-12015517D01*
X16290357Y-12063136D01*
X16280833Y-12101231D01*
X16271309Y-12120279D01*
X16261786Y-12129803D01*
X16242738Y-12139326D01*
X16223690Y-12139326D01*
X16204643Y-12129803D01*
X16195119Y-12120279D01*
X16185595Y-12101231D01*
X16176071Y-12063136D01*
X16176071Y-12015517D01*
X16185595Y-11977422D01*
X16195119Y-11958374D01*
X16204643Y-11948850D01*
X16223690Y-11939326D01*
X16366548Y-11958374D02*
X16376071Y-11948850D01*
X16395119Y-11939326D01*
X16442738Y-11939326D01*
X16461786Y-11948850D01*
X16471309Y-11958374D01*
X16480833Y-11977422D01*
X16480833Y-11996469D01*
X16471309Y-12025041D01*
X16357024Y-12139326D01*
X16480833Y-12139326D01*
X16661786Y-11939326D02*
X16566548Y-11939326D01*
X16557024Y-12034565D01*
X16566548Y-12025041D01*
X16585595Y-12015517D01*
X16633214Y-12015517D01*
X16652262Y-12025041D01*
X16661786Y-12034565D01*
X16671309Y-12053612D01*
X16671309Y-12101231D01*
X16661786Y-12120279D01*
X16652262Y-12129803D01*
X16633214Y-12139326D01*
X16585595Y-12139326D01*
X16566548Y-12129803D01*
X16557024Y-12120279D01*
X16842738Y-11939326D02*
X16804643Y-11939326D01*
X16785595Y-11948850D01*
X16776071Y-11958374D01*
X16757024Y-11986946D01*
X16747500Y-12025041D01*
X16747500Y-12101231D01*
X16757024Y-12120279D01*
X16766548Y-12129803D01*
X16785595Y-12139326D01*
X16823690Y-12139326D01*
X16842738Y-12129803D01*
X16852262Y-12120279D01*
X16861786Y-12101231D01*
X16861786Y-12053612D01*
X16852262Y-12034565D01*
X16842738Y-12025041D01*
X16823690Y-12015517D01*
X16785595Y-12015517D01*
X16766548Y-12025041D01*
X16757024Y-12034565D01*
X16747500Y-12053612D01*
X16937976Y-11939326D02*
X16937976Y-11977422D01*
X17014167Y-11939326D02*
X17014167Y-11977422D01*
X17309405Y-12215517D02*
X17299881Y-12205993D01*
X17280833Y-12177422D01*
X17271310Y-12158374D01*
X17261786Y-12129803D01*
X17252262Y-12082184D01*
X17252262Y-12044088D01*
X17261786Y-11996469D01*
X17271310Y-11967898D01*
X17280833Y-11948850D01*
X17299881Y-11920279D01*
X17309405Y-11910755D01*
X17376071Y-11958374D02*
X17385595Y-11948850D01*
X17404643Y-11939326D01*
X17452262Y-11939326D01*
X17471310Y-11948850D01*
X17480833Y-11958374D01*
X17490357Y-11977422D01*
X17490357Y-11996469D01*
X17480833Y-12025041D01*
X17366548Y-12139326D01*
X17490357Y-12139326D01*
X17728452Y-12139326D02*
X17728452Y-11939326D01*
X17814167Y-12139326D02*
X17814167Y-12034565D01*
X17804643Y-12015517D01*
X17785595Y-12005993D01*
X17757024Y-12005993D01*
X17737976Y-12015517D01*
X17728452Y-12025041D01*
X17937976Y-12139326D02*
X17918929Y-12129803D01*
X17909405Y-12120279D01*
X17899881Y-12101231D01*
X17899881Y-12044088D01*
X17909405Y-12025041D01*
X17918929Y-12015517D01*
X17937976Y-12005993D01*
X17966548Y-12005993D01*
X17985595Y-12015517D01*
X17995119Y-12025041D01*
X18004643Y-12044088D01*
X18004643Y-12101231D01*
X17995119Y-12120279D01*
X17985595Y-12129803D01*
X17966548Y-12139326D01*
X17937976Y-12139326D01*
X18118929Y-12139326D02*
X18099881Y-12129803D01*
X18090357Y-12110755D01*
X18090357Y-11939326D01*
X18271310Y-12129803D02*
X18252262Y-12139326D01*
X18214167Y-12139326D01*
X18195119Y-12129803D01*
X18185595Y-12110755D01*
X18185595Y-12034565D01*
X18195119Y-12015517D01*
X18214167Y-12005993D01*
X18252262Y-12005993D01*
X18271310Y-12015517D01*
X18280833Y-12034565D01*
X18280833Y-12053612D01*
X18185595Y-12072660D01*
X18357024Y-12129803D02*
X18376071Y-12139326D01*
X18414167Y-12139326D01*
X18433214Y-12129803D01*
X18442738Y-12110755D01*
X18442738Y-12101231D01*
X18433214Y-12082184D01*
X18414167Y-12072660D01*
X18385595Y-12072660D01*
X18366548Y-12063136D01*
X18357024Y-12044088D01*
X18357024Y-12034565D01*
X18366548Y-12015517D01*
X18385595Y-12005993D01*
X18414167Y-12005993D01*
X18433214Y-12015517D01*
X18509405Y-12215517D02*
X18518929Y-12205993D01*
X18537976Y-12177422D01*
X18547500Y-12158374D01*
X18557024Y-12129803D01*
X18566548Y-12082184D01*
X18566548Y-12044088D01*
X18557024Y-11996469D01*
X18547500Y-11967898D01*
X18537976Y-11948850D01*
X18518929Y-11920279D01*
X18509405Y-11910755D01*
X18871310Y-12215517D02*
X18861786Y-12205993D01*
X18842738Y-12177422D01*
X18833214Y-12158374D01*
X18823690Y-12129803D01*
X18814167Y-12082184D01*
X18814167Y-12044088D01*
X18823690Y-11996469D01*
X18833214Y-11967898D01*
X18842738Y-11948850D01*
X18861786Y-11920279D01*
X18871310Y-11910755D01*
X18947500Y-12005993D02*
X18947500Y-12139326D01*
X18947500Y-12025041D02*
X18957024Y-12015517D01*
X18976071Y-12005993D01*
X19004643Y-12005993D01*
X19023690Y-12015517D01*
X19033214Y-12034565D01*
X19033214Y-12139326D01*
X19157024Y-12139326D02*
X19137976Y-12129803D01*
X19128452Y-12120279D01*
X19118929Y-12101231D01*
X19118929Y-12044088D01*
X19128452Y-12025041D01*
X19137976Y-12015517D01*
X19157024Y-12005993D01*
X19185595Y-12005993D01*
X19204643Y-12015517D01*
X19214167Y-12025041D01*
X19223690Y-12044088D01*
X19223690Y-12101231D01*
X19214167Y-12120279D01*
X19204643Y-12129803D01*
X19185595Y-12139326D01*
X19157024Y-12139326D01*
X19280833Y-12005993D02*
X19357024Y-12005993D01*
X19309405Y-11939326D02*
X19309405Y-12110755D01*
X19318929Y-12129803D01*
X19337976Y-12139326D01*
X19357024Y-12139326D01*
X19576071Y-12005993D02*
X19576071Y-12205993D01*
X19576071Y-12015517D02*
X19595119Y-12005993D01*
X19633214Y-12005993D01*
X19652262Y-12015517D01*
X19661786Y-12025041D01*
X19671310Y-12044088D01*
X19671310Y-12101231D01*
X19661786Y-12120279D01*
X19652262Y-12129803D01*
X19633214Y-12139326D01*
X19595119Y-12139326D01*
X19576071Y-12129803D01*
X19785595Y-12139326D02*
X19766548Y-12129803D01*
X19757024Y-12110755D01*
X19757024Y-11939326D01*
X19947500Y-12139326D02*
X19947500Y-12034565D01*
X19937976Y-12015517D01*
X19918929Y-12005993D01*
X19880833Y-12005993D01*
X19861786Y-12015517D01*
X19947500Y-12129803D02*
X19928452Y-12139326D01*
X19880833Y-12139326D01*
X19861786Y-12129803D01*
X19852262Y-12110755D01*
X19852262Y-12091707D01*
X19861786Y-12072660D01*
X19880833Y-12063136D01*
X19928452Y-12063136D01*
X19947500Y-12053612D01*
X20014167Y-12005993D02*
X20090357Y-12005993D01*
X20042738Y-11939326D02*
X20042738Y-12110755D01*
X20052262Y-12129803D01*
X20071310Y-12139326D01*
X20090357Y-12139326D01*
X20233214Y-12129803D02*
X20214167Y-12139326D01*
X20176071Y-12139326D01*
X20157024Y-12129803D01*
X20147500Y-12110755D01*
X20147500Y-12034565D01*
X20157024Y-12015517D01*
X20176071Y-12005993D01*
X20214167Y-12005993D01*
X20233214Y-12015517D01*
X20242738Y-12034565D01*
X20242738Y-12053612D01*
X20147500Y-12072660D01*
X20414167Y-12139326D02*
X20414167Y-11939326D01*
X20414167Y-12129803D02*
X20395119Y-12139326D01*
X20357024Y-12139326D01*
X20337976Y-12129803D01*
X20328452Y-12120279D01*
X20318929Y-12101231D01*
X20318929Y-12044088D01*
X20328452Y-12025041D01*
X20337976Y-12015517D01*
X20357024Y-12005993D01*
X20395119Y-12005993D01*
X20414167Y-12015517D01*
X20490357Y-12215517D02*
X20499881Y-12205993D01*
X20518929Y-12177422D01*
X20528452Y-12158374D01*
X20537976Y-12129803D01*
X20547500Y-12082184D01*
X20547500Y-12044088D01*
X20537976Y-11996469D01*
X20528452Y-11967898D01*
X20518929Y-11948850D01*
X20499881Y-11920279D01*
X20490357Y-11910755D01*
D13*
X13737500Y-12312850D02*
G75*
G03*
X13737500Y-12312850I-57600J0D01*
G01*
D11*
X14099881Y-12403326D02*
X13985595Y-12403326D01*
X14042738Y-12403326D02*
X14042738Y-12203326D01*
X14023690Y-12231898D01*
X14004643Y-12250946D01*
X13985595Y-12260469D01*
X14185595Y-12384279D02*
X14195119Y-12393803D01*
X14185595Y-12403326D01*
X14176071Y-12393803D01*
X14185595Y-12384279D01*
X14185595Y-12403326D01*
X14385595Y-12403326D02*
X14271309Y-12403326D01*
X14328452Y-12403326D02*
X14328452Y-12203326D01*
X14309405Y-12231898D01*
X14290357Y-12250946D01*
X14271309Y-12260469D01*
X14566548Y-12203326D02*
X14471309Y-12203326D01*
X14461786Y-12298565D01*
X14471309Y-12289041D01*
X14490357Y-12279517D01*
X14537976Y-12279517D01*
X14557024Y-12289041D01*
X14566548Y-12298565D01*
X14576071Y-12317612D01*
X14576071Y-12365231D01*
X14566548Y-12384279D01*
X14557024Y-12393803D01*
X14537976Y-12403326D01*
X14490357Y-12403326D01*
X14471309Y-12393803D01*
X14461786Y-12384279D01*
X14652262Y-12222374D02*
X14661786Y-12212850D01*
X14680833Y-12203326D01*
X14728452Y-12203326D01*
X14747500Y-12212850D01*
X14757024Y-12222374D01*
X14766548Y-12241422D01*
X14766548Y-12260469D01*
X14757024Y-12289041D01*
X14642738Y-12403326D01*
X14766548Y-12403326D01*
X14852262Y-12403326D02*
X14852262Y-12269993D01*
X14852262Y-12289041D02*
X14861786Y-12279517D01*
X14880833Y-12269993D01*
X14909405Y-12269993D01*
X14928452Y-12279517D01*
X14937976Y-12298565D01*
X14937976Y-12403326D01*
X14937976Y-12298565D02*
X14947500Y-12279517D01*
X14966548Y-12269993D01*
X14995119Y-12269993D01*
X15014167Y-12279517D01*
X15023690Y-12298565D01*
X15023690Y-12403326D01*
X15118928Y-12403326D02*
X15118928Y-12269993D01*
X15118928Y-12289041D02*
X15128452Y-12279517D01*
X15147500Y-12269993D01*
X15176071Y-12269993D01*
X15195119Y-12279517D01*
X15204643Y-12298565D01*
X15204643Y-12403326D01*
X15204643Y-12298565D02*
X15214167Y-12279517D01*
X15233214Y-12269993D01*
X15261786Y-12269993D01*
X15280833Y-12279517D01*
X15290357Y-12298565D01*
X15290357Y-12403326D01*
X15680833Y-12193803D02*
X15509405Y-12450946D01*
X15937976Y-12203326D02*
X15957024Y-12203326D01*
X15976071Y-12212850D01*
X15985595Y-12222374D01*
X15995119Y-12241422D01*
X16004643Y-12279517D01*
X16004643Y-12327136D01*
X15995119Y-12365231D01*
X15985595Y-12384279D01*
X15976071Y-12393803D01*
X15957024Y-12403326D01*
X15937976Y-12403326D01*
X15918928Y-12393803D01*
X15909405Y-12384279D01*
X15899881Y-12365231D01*
X15890357Y-12327136D01*
X15890357Y-12279517D01*
X15899881Y-12241422D01*
X15909405Y-12222374D01*
X15918928Y-12212850D01*
X15937976Y-12203326D01*
X16090357Y-12384279D02*
X16099881Y-12393803D01*
X16090357Y-12403326D01*
X16080833Y-12393803D01*
X16090357Y-12384279D01*
X16090357Y-12403326D01*
X16223690Y-12203326D02*
X16242738Y-12203326D01*
X16261786Y-12212850D01*
X16271309Y-12222374D01*
X16280833Y-12241422D01*
X16290357Y-12279517D01*
X16290357Y-12327136D01*
X16280833Y-12365231D01*
X16271309Y-12384279D01*
X16261786Y-12393803D01*
X16242738Y-12403326D01*
X16223690Y-12403326D01*
X16204643Y-12393803D01*
X16195119Y-12384279D01*
X16185595Y-12365231D01*
X16176071Y-12327136D01*
X16176071Y-12279517D01*
X16185595Y-12241422D01*
X16195119Y-12222374D01*
X16204643Y-12212850D01*
X16223690Y-12203326D01*
X16461786Y-12269993D02*
X16461786Y-12403326D01*
X16414167Y-12193803D02*
X16366548Y-12336660D01*
X16490357Y-12336660D01*
X16661786Y-12203326D02*
X16566548Y-12203326D01*
X16557024Y-12298565D01*
X16566548Y-12289041D01*
X16585595Y-12279517D01*
X16633214Y-12279517D01*
X16652262Y-12289041D01*
X16661786Y-12298565D01*
X16671309Y-12317612D01*
X16671309Y-12365231D01*
X16661786Y-12384279D01*
X16652262Y-12393803D01*
X16633214Y-12403326D01*
X16585595Y-12403326D01*
X16566548Y-12393803D01*
X16557024Y-12384279D01*
X16842738Y-12269993D02*
X16842738Y-12403326D01*
X16795119Y-12193803D02*
X16747500Y-12336660D01*
X16871310Y-12336660D01*
X16937976Y-12203326D02*
X16937976Y-12241422D01*
X17014167Y-12203326D02*
X17014167Y-12241422D01*
X17309405Y-12479517D02*
X17299881Y-12469993D01*
X17280833Y-12441422D01*
X17271310Y-12422374D01*
X17261786Y-12393803D01*
X17252262Y-12346184D01*
X17252262Y-12308088D01*
X17261786Y-12260469D01*
X17271310Y-12231898D01*
X17280833Y-12212850D01*
X17299881Y-12184279D01*
X17309405Y-12174755D01*
X17376071Y-12222374D02*
X17385595Y-12212850D01*
X17404643Y-12203326D01*
X17452262Y-12203326D01*
X17471310Y-12212850D01*
X17480833Y-12222374D01*
X17490357Y-12241422D01*
X17490357Y-12260469D01*
X17480833Y-12289041D01*
X17366548Y-12403326D01*
X17490357Y-12403326D01*
X17728452Y-12403326D02*
X17728452Y-12203326D01*
X17814167Y-12403326D02*
X17814167Y-12298565D01*
X17804643Y-12279517D01*
X17785595Y-12269993D01*
X17757024Y-12269993D01*
X17737976Y-12279517D01*
X17728452Y-12289041D01*
X17937976Y-12403326D02*
X17918929Y-12393803D01*
X17909405Y-12384279D01*
X17899881Y-12365231D01*
X17899881Y-12308088D01*
X17909405Y-12289041D01*
X17918929Y-12279517D01*
X17937976Y-12269993D01*
X17966548Y-12269993D01*
X17985595Y-12279517D01*
X17995119Y-12289041D01*
X18004643Y-12308088D01*
X18004643Y-12365231D01*
X17995119Y-12384279D01*
X17985595Y-12393803D01*
X17966548Y-12403326D01*
X17937976Y-12403326D01*
X18118929Y-12403326D02*
X18099881Y-12393803D01*
X18090357Y-12374755D01*
X18090357Y-12203326D01*
X18271310Y-12393803D02*
X18252262Y-12403326D01*
X18214167Y-12403326D01*
X18195119Y-12393803D01*
X18185595Y-12374755D01*
X18185595Y-12298565D01*
X18195119Y-12279517D01*
X18214167Y-12269993D01*
X18252262Y-12269993D01*
X18271310Y-12279517D01*
X18280833Y-12298565D01*
X18280833Y-12317612D01*
X18185595Y-12336660D01*
X18357024Y-12393803D02*
X18376071Y-12403326D01*
X18414167Y-12403326D01*
X18433214Y-12393803D01*
X18442738Y-12374755D01*
X18442738Y-12365231D01*
X18433214Y-12346184D01*
X18414167Y-12336660D01*
X18385595Y-12336660D01*
X18366548Y-12327136D01*
X18357024Y-12308088D01*
X18357024Y-12298565D01*
X18366548Y-12279517D01*
X18385595Y-12269993D01*
X18414167Y-12269993D01*
X18433214Y-12279517D01*
X18509405Y-12479517D02*
X18518929Y-12469993D01*
X18537976Y-12441422D01*
X18547500Y-12422374D01*
X18557024Y-12393803D01*
X18566548Y-12346184D01*
X18566548Y-12308088D01*
X18557024Y-12260469D01*
X18547500Y-12231898D01*
X18537976Y-12212850D01*
X18518929Y-12184279D01*
X18509405Y-12174755D01*
X18871310Y-12479517D02*
X18861786Y-12469993D01*
X18842738Y-12441422D01*
X18833214Y-12422374D01*
X18823690Y-12393803D01*
X18814167Y-12346184D01*
X18814167Y-12308088D01*
X18823690Y-12260469D01*
X18833214Y-12231898D01*
X18842738Y-12212850D01*
X18861786Y-12184279D01*
X18871310Y-12174755D01*
X18947500Y-12269993D02*
X18947500Y-12403326D01*
X18947500Y-12289041D02*
X18957024Y-12279517D01*
X18976071Y-12269993D01*
X19004643Y-12269993D01*
X19023690Y-12279517D01*
X19033214Y-12298565D01*
X19033214Y-12403326D01*
X19157024Y-12403326D02*
X19137976Y-12393803D01*
X19128452Y-12384279D01*
X19118929Y-12365231D01*
X19118929Y-12308088D01*
X19128452Y-12289041D01*
X19137976Y-12279517D01*
X19157024Y-12269993D01*
X19185595Y-12269993D01*
X19204643Y-12279517D01*
X19214167Y-12289041D01*
X19223690Y-12308088D01*
X19223690Y-12365231D01*
X19214167Y-12384279D01*
X19204643Y-12393803D01*
X19185595Y-12403326D01*
X19157024Y-12403326D01*
X19280833Y-12269993D02*
X19357024Y-12269993D01*
X19309405Y-12203326D02*
X19309405Y-12374755D01*
X19318929Y-12393803D01*
X19337976Y-12403326D01*
X19357024Y-12403326D01*
X19576071Y-12269993D02*
X19576071Y-12469993D01*
X19576071Y-12279517D02*
X19595119Y-12269993D01*
X19633214Y-12269993D01*
X19652262Y-12279517D01*
X19661786Y-12289041D01*
X19671310Y-12308088D01*
X19671310Y-12365231D01*
X19661786Y-12384279D01*
X19652262Y-12393803D01*
X19633214Y-12403326D01*
X19595119Y-12403326D01*
X19576071Y-12393803D01*
X19785595Y-12403326D02*
X19766548Y-12393803D01*
X19757024Y-12374755D01*
X19757024Y-12203326D01*
X19947500Y-12403326D02*
X19947500Y-12298565D01*
X19937976Y-12279517D01*
X19918929Y-12269993D01*
X19880833Y-12269993D01*
X19861786Y-12279517D01*
X19947500Y-12393803D02*
X19928452Y-12403326D01*
X19880833Y-12403326D01*
X19861786Y-12393803D01*
X19852262Y-12374755D01*
X19852262Y-12355707D01*
X19861786Y-12336660D01*
X19880833Y-12327136D01*
X19928452Y-12327136D01*
X19947500Y-12317612D01*
X20014167Y-12269993D02*
X20090357Y-12269993D01*
X20042738Y-12203326D02*
X20042738Y-12374755D01*
X20052262Y-12393803D01*
X20071310Y-12403326D01*
X20090357Y-12403326D01*
X20233214Y-12393803D02*
X20214167Y-12403326D01*
X20176071Y-12403326D01*
X20157024Y-12393803D01*
X20147500Y-12374755D01*
X20147500Y-12298565D01*
X20157024Y-12279517D01*
X20176071Y-12269993D01*
X20214167Y-12269993D01*
X20233214Y-12279517D01*
X20242738Y-12298565D01*
X20242738Y-12317612D01*
X20147500Y-12336660D01*
X20414167Y-12403326D02*
X20414167Y-12203326D01*
X20414167Y-12393803D02*
X20395119Y-12403326D01*
X20357024Y-12403326D01*
X20337976Y-12393803D01*
X20328452Y-12384279D01*
X20318929Y-12365231D01*
X20318929Y-12308088D01*
X20328452Y-12289041D01*
X20337976Y-12279517D01*
X20357024Y-12269993D01*
X20395119Y-12269993D01*
X20414167Y-12279517D01*
X20490357Y-12479517D02*
X20499881Y-12469993D01*
X20518929Y-12441422D01*
X20528452Y-12422374D01*
X20537976Y-12393803D01*
X20547500Y-12346184D01*
X20547500Y-12308088D01*
X20537976Y-12260469D01*
X20528452Y-12231898D01*
X20518929Y-12212850D01*
X20499881Y-12184279D01*
X20490357Y-12174755D01*
M02*
